<svg xmlns="http://www.w3.org/2000/svg" viewBox="0 0 512 512">
  <circle cx="256" cy="256" r="240" fill="#f9844a" />
  <path d="M256 16c-132.55 0-240 107.45-240 240s107.45 240 240 240 240-107.45 240-240S388.55 16 256 16zm0 460c-121.5 0-220-98.5-220-220S134.5 36 256 36s220 98.5 220 220-98.5 220-220 220z" fill="#4361ee" />
  <path d="M432.7 304.8c-6.7-13.8-14.8-26.9-24.2-39.1-9.4-12.2-20-23.5-31.5-33.6-11.5-10.1-24-19.1-37.3-26.6-13.3-7.5-27.4-13.6-42-18.1-14.6-4.5-29.7-7.4-45-8.6-15.3-1.2-30.7-0.6-45.7 1.7-15 2.3-29.8 6.3-43.9 11.9-14.1 5.6-27.5 12.9-39.9 21.6-12.4 8.7-23.8 18.9-33.9 30.2-10.1 11.3-19 23.7-26.3 36.9-7.3 13.2-13.1 27.3-17.2 41.9" stroke="#4361ee" stroke-width="16" fill="none" />
  <path d="M79.3 207.2c6.7 13.8 14.8 26.9 24.2 39.1 9.4 12.2 20 23.5 31.5 33.6 11.5 10.1 24 19.1 37.3 26.6 13.3 7.5 27.4 13.6 42 18.1 14.6 4.5 29.7 7.4 45 8.6 15.3 1.2 30.7 0.6 45.7-1.7 15-2.3 29.8-6.3 43.9-11.9 14.1-5.6 27.5-12.9 39.9-21.6 12.4-8.7 23.8-18.9 33.9-30.2 10.1-11.3 19-23.7 26.3-36.9 7.3-13.2 13.1-27.3 17.2-41.9" stroke="#4361ee" stroke-width="16" fill="none" />
  <path d="M256 16v480M16 256h480" stroke="#4361ee" stroke-width="16" fill="none" />
</svg>
