<svg xmlns="http://www.w3.org/2000/svg" viewBox="0 0 512 512">
  <path d="M256 16c-132.55 0-240 107.45-240 240s107.45 240 240 240 240-107.45 240-240S388.55 16 256 16zm0 440c-110.5 0-200-89.5-200-200S145.5 56 256 56s200 89.5 200 200-89.5 200-200 200z" />
  <path d="M256 96c-88.5 0-160 71.5-160 160s71.5 160 160 160 160-71.5 160-160-71.5-160-160-160zm0 290c-71.5 0-130-58.5-130-130s58.5-130.1 130-130.1S386 184.5 386 256s-58.5 130-130 130z" />
  <path d="M256 186c-38.7 0-70 31.3-70 70s31.3 70 70 70 70-31.3 70-70-31.3-70-70-70z" />
</svg>
